<?xml version="1.0" encoding="UTF-8"?><svg xmlns="http://www.w3.org/2000/svg" xmlns:xlink="http://www.w3.org/1999/xlink" viewBox="0 0 1933.5 1090"><defs><style>.cls-1{fill:url(#linear-gradient-10);}.cls-1,.cls-2,.cls-3,.cls-4,.cls-5,.cls-6,.cls-7,.cls-8,.cls-9,.cls-10,.cls-11,.cls-12,.cls-13,.cls-14{stroke:#000;stroke-miterlimit:10;}.cls-2{fill:url(#linear-gradient-12);}.cls-3{fill:url(#linear-gradient-11);}.cls-4{fill:url(#linear-gradient-13);}.cls-15{fill:url(#radial-gradient-7);}.cls-16{fill:url(#radial-gradient-6);}.cls-17{fill:url(#radial-gradient-5);}.cls-18{fill:url(#radial-gradient-4);}.cls-19{fill:url(#radial-gradient-9);}.cls-20{fill:url(#radial-gradient-8);}.cls-21{fill:url(#radial-gradient-3);}.cls-22{fill:url(#radial-gradient-2);}.cls-23{fill:url(#radial-gradient);}.cls-5{fill:url(#linear-gradient-5);}.cls-6{fill:url(#linear-gradient-8);}.cls-7{fill:url(#linear-gradient-7);}.cls-8{fill:url(#linear-gradient-4);}.cls-9{fill:url(#linear-gradient-3);}.cls-10{fill:url(#linear-gradient-2);}.cls-11{fill:url(#linear-gradient-9);}.cls-12{fill:url(#linear-gradient-6);}.cls-13{fill:url(#linear-gradient);}.cls-14{fill:#fff;}.cls-24{fill:url(#radial-gradient-16);}.cls-25{fill:url(#radial-gradient-12);}.cls-26{fill:url(#radial-gradient-14);}.cls-27{fill:url(#radial-gradient-13);}.cls-28{fill:url(#radial-gradient-10);}.cls-29{fill:url(#radial-gradient-17);}.cls-30{fill:url(#radial-gradient-19);}.cls-31{fill:url(#radial-gradient-11);}.cls-32{fill:url(#radial-gradient-18);}.cls-33{fill:url(#radial-gradient-15);}.cls-34{fill:url(#radial-gradient-42);}.cls-35{fill:url(#radial-gradient-40);}.cls-36{fill:url(#radial-gradient-41);}.cls-37{fill:url(#radial-gradient-25);}.cls-38{fill:url(#radial-gradient-35);}.cls-39{fill:url(#radial-gradient-34);}.cls-40{fill:url(#radial-gradient-22);}.cls-41{fill:url(#radial-gradient-28);}.cls-42{fill:url(#radial-gradient-23);}.cls-43{fill:url(#radial-gradient-20);}.cls-44{fill:url(#radial-gradient-24);}.cls-45{fill:url(#radial-gradient-26);}.cls-46{fill:url(#radial-gradient-29);}.cls-47{fill:url(#radial-gradient-27);}.cls-48{fill:url(#radial-gradient-21);}.cls-49{fill:url(#radial-gradient-39);}.cls-50{fill:url(#radial-gradient-38);}.cls-51{fill:url(#radial-gradient-33);}.cls-52{fill:url(#radial-gradient-32);}.cls-53{fill:url(#radial-gradient-31);}.cls-54{fill:url(#radial-gradient-30);}.cls-55{fill:url(#radial-gradient-37);}.cls-56{fill:url(#radial-gradient-36);}</style><linearGradient id="linear-gradient" x1="5" y1="545" x2="1923.43" y2="545" gradientUnits="userSpaceOnUse"><stop offset="0" stop-color="#cce0f4"/><stop offset=".06" stop-color="#c2dcf2"/><stop offset=".17" stop-color="#a9d2ee"/><stop offset=".31" stop-color="#7fc2e7"/><stop offset=".46" stop-color="#46abdd"/><stop offset=".57" stop-color="#1e9cd7"/><stop offset=".87" stop-color="#0075be"/><stop offset=".99" stop-color="#005b97"/></linearGradient><linearGradient id="linear-gradient-2" x1="188.11" y1="532.16" x2="419.1" y2="532.16" gradientUnits="userSpaceOnUse"><stop offset="0" stop-color="#fff"/><stop offset="1" stop-color="#000"/></linearGradient><linearGradient id="linear-gradient-3" x1="641.09" y1="555.43" x2="898.51" y2="555.43" xlink:href="#linear-gradient-2"/><linearGradient id="linear-gradient-4" x1="1022.26" y1="637.01" x2="1224.12" y2="637.01" xlink:href="#linear-gradient-2"/><linearGradient id="linear-gradient-5" x1="1432.78" y1="558.78" x2="1806.11" y2="558.78" xlink:href="#linear-gradient-2"/><linearGradient id="linear-gradient-6" x1="1809.64" y1="488.91" x2="1923.43" y2="488.91" xlink:href="#linear-gradient-2"/><linearGradient id="linear-gradient-7" x1="1696.08" y1="369.97" x2="1764.83" y2="369.97" xlink:href="#linear-gradient-2"/><linearGradient id="linear-gradient-8" x1="1579.69" y1="470.16" x2="1648.93" y2="470.16" xlink:href="#linear-gradient-2"/><linearGradient id="linear-gradient-9" x1="1350.33" y1="452.48" x2="1417.12" y2="452.48" xlink:href="#linear-gradient-2"/><linearGradient id="linear-gradient-10" x1="920.11" y1="584.58" x2="1014.4" y2="584.58" xlink:href="#linear-gradient-2"/><linearGradient id="linear-gradient-11" x1="570.43" y1="526.08" x2="632.78" y2="526.08" xlink:href="#linear-gradient-2"/><linearGradient id="linear-gradient-12" x1="368.09" y1="667.01" x2="491.85" y2="667.01" xlink:href="#linear-gradient-2"/><linearGradient id="linear-gradient-13" x1="33.44" y1="542.6" x2="176.84" y2="542.6" xlink:href="#linear-gradient-2"/><radialGradient id="radial-gradient" cx="964.22" cy="929.93" fx="964.22" fy="929.93" r="687.07" gradientUnits="userSpaceOnUse"><stop offset="0" stop-color="#fff"/><stop offset=".02" stop-color="#f4f9fd"/><stop offset=".14" stop-color="#bbdbf6"/><stop offset=".25" stop-color="#89c0f0"/><stop offset=".37" stop-color="#5faaea"/><stop offset=".49" stop-color="#3c98e6"/><stop offset=".61" stop-color="#228ae3"/><stop offset=".74" stop-color="#0f7fe0"/><stop offset=".87" stop-color="#0379df"/><stop offset="1" stop-color="#0078df"/></radialGradient><radialGradient id="radial-gradient-2" cx="316.92" cy="826.91" fx="316.92" fy="826.91" r="121.97" gradientUnits="userSpaceOnUse"><stop offset="0" stop-color="#fff"/><stop offset=".01" stop-color="#f9fbff"/><stop offset=".15" stop-color="#c8dcff"/><stop offset=".28" stop-color="#9ec2ff"/><stop offset=".42" stop-color="#7bacff"/><stop offset=".56" stop-color="#619bff"/><stop offset=".7" stop-color="#4e8fff"/><stop offset=".84" stop-color="#4288ff"/><stop offset="1" stop-color="#3f86ff"/></radialGradient><radialGradient id="radial-gradient-3" cx="1563.46" cy="686.09" fx="1563.46" fy="686.09" r="121.96" gradientTransform="translate(375.69 438.33) scale(.7 .5)" xlink:href="#radial-gradient-2"/><radialGradient id="radial-gradient-4" cx="680.61" cy="940.4" fx="680.61" fy="940.4" r="121.96" gradientTransform="translate(1103.69 1489.54) rotate(-180) scale(.72 .69)" xlink:href="#radial-gradient-2"/><radialGradient id="radial-gradient-5" cx="1678.46" cy="880.24" fx="1678.46" fy="880.24" r="121.96" xlink:href="#radial-gradient-2"/><radialGradient id="radial-gradient-6" cx="1011.21" cy="896.3" fx="1011.21" fy="896.3" r="121.96" gradientUnits="userSpaceOnUse"><stop offset=".49" stop-color="#fff"/><stop offset=".5" stop-color="#fbfcff"/><stop offset=".62" stop-color="#e1ecff"/><stop offset=".74" stop-color="#cee1ff"/><stop offset=".87" stop-color="#c2daff"/><stop offset="1" stop-color="#bfd8ff"/></radialGradient><radialGradient id="radial-gradient-7" cx="442.33" cy="807.8" fx="442.33" fy="807.8" r="121.96" gradientTransform="translate(1364.7 137.27) rotate(-180) scale(.55 -.82)" xlink:href="#radial-gradient-6"/><radialGradient id="radial-gradient-8" cx="377.44" cy="1007.01" fx="377.44" fy="1007.01" r="121.97" gradientTransform="translate(-83.31 -429.13) scale(1.32 1.42)" xlink:href="#radial-gradient-2"/><radialGradient id="radial-gradient-9" cx="1506.74" cy="1027.32" fx="1506.74" fy="1027.32" r="121.97" xlink:href="#radial-gradient-2"/><radialGradient id="radial-gradient-10" cx="851.13" cy="765.64" fx="851.13" fy="765.64" r="121.96" gradientTransform="translate(1187.15 447.5) rotate(-180) scale(.38 -.41)" xlink:href="#radial-gradient-6"/><radialGradient id="radial-gradient-11" cx="346.84" cy="726.09" fx="346.84" fy="726.09" r="121.96" gradientTransform="translate(1266.5 502.93) rotate(-180) scale(.53 -.34)" xlink:href="#radial-gradient-6"/><radialGradient id="radial-gradient-12" cx="219.4" cy="290.99" fx="219.4" fy="290.99" r="121.96" gradientTransform="translate(419.86 854.9) scale(.75 -.32)" xlink:href="#radial-gradient-6"/><radialGradient id="radial-gradient-13" cx="964.01" cy="762.74" fx="964.01" fy="762.74" r="679.82" gradientUnits="userSpaceOnUse"><stop offset="0" stop-color="#003f12"/><stop offset=".39" stop-color="#003910"/><stop offset=".53" stop-color="#002109"/><stop offset=".68" stop-color="#000f04"/><stop offset=".83" stop-color="#000301"/><stop offset="1" stop-color="#000"/></radialGradient><radialGradient id="radial-gradient-14" cx="1432.78" cy="712.22" fx="1432.78" fy="712.22" r="33.53" gradientUnits="userSpaceOnUse"><stop offset=".41" stop-color="#003f12"/><stop offset=".43" stop-color="#003c11"/><stop offset=".56" stop-color="#002209"/><stop offset=".7" stop-color="#000f04"/><stop offset=".85" stop-color="#000301"/><stop offset="1" stop-color="#000"/></radialGradient><radialGradient id="radial-gradient-15" cx="1634.03" cy="721.5" fx="1634.03" fy="721.5" gradientTransform="translate(-2840.1 -1533.5) scale(2.87 3.03)" xlink:href="#radial-gradient-14"/><radialGradient id="radial-gradient-16" cx="1589.66" cy="723.08" fx="1589.66" fy="723.08" gradientTransform="translate(-1275.05 -994.39) scale(1.88 2.31)" xlink:href="#radial-gradient-14"/><radialGradient id="radial-gradient-17" cx="1516.38" cy="718.78" fx="1516.38" fy="718.78" r="33.53" gradientTransform="translate(-1275.05 -994.39) scale(1.88 2.31)" xlink:href="#radial-gradient-14"/><radialGradient id="radial-gradient-18" cx="1477.64" cy="718.78" fx="1477.64" fy="718.78" r="33.53" gradientTransform="translate(-1275.05 -994.39) scale(1.88 2.31)" gradientUnits="userSpaceOnUse"><stop offset="0" stop-color="#003f12"/><stop offset=".02" stop-color="#003c11"/><stop offset=".25" stop-color="#002209"/><stop offset=".49" stop-color="#000f04"/><stop offset=".74" stop-color="#000301"/><stop offset="1" stop-color="#000"/></radialGradient><radialGradient id="radial-gradient-19" cx="897.25" cy="726.67" fx="897.25" fy="726.67" gradientTransform="translate(-1275.05 -994.39) scale(1.88 2.31)" xlink:href="#radial-gradient-14"/><radialGradient id="radial-gradient-20" cx="835.97" cy="726.67" fx="835.97" fy="726.67" gradientTransform="translate(-1275.05 -994.39) scale(1.88 2.31)" xlink:href="#radial-gradient-14"/><radialGradient id="radial-gradient-21" cx="921.04" cy="719.5" fx="921.04" fy="719.5" r="33.53" gradientTransform="translate(-1275.05 -994.39) scale(1.88 2.31)" xlink:href="#radial-gradient-14"/><radialGradient id="radial-gradient-22" cx="790.1" cy="726.67" fx="790.1" fy="726.67" gradientTransform="translate(-1275.05 -994.39) scale(1.88 2.31)" xlink:href="#radial-gradient-14"/><radialGradient id="radial-gradient-23" cx="737.62" cy="722.36" fx="737.62" fy="722.36" r="33.53" gradientTransform="translate(-1734.4 -1626.04) scale(2.53 3.14)" xlink:href="#radial-gradient-14"/><radialGradient id="radial-gradient-24" cx="1173.48" cy="722.62" fx="1173.48" fy="722.62" r="33.53" gradientTransform="translate(-1275.05 -994.39) scale(1.88 2.31)" gradientUnits="userSpaceOnUse"><stop offset="0" stop-color="#003f12"/><stop offset=".02" stop-color="#003c11"/><stop offset=".25" stop-color="#002209"/><stop offset=".49" stop-color="#000f04"/><stop offset=".74" stop-color="#000301"/><stop offset="1" stop-color="#000"/></radialGradient><radialGradient id="radial-gradient-25" cx="1112.2" fx="1112.2" xlink:href="#radial-gradient-24"/><radialGradient id="radial-gradient-26" cx="1197.27" cy="715.45" fx="1197.27" fy="715.45" r="33.53" xlink:href="#radial-gradient-24"/><radialGradient id="radial-gradient-27" cx="1066.33" cy="722.62" fx="1066.33" fy="722.62" r="33.53" gradientTransform="translate(-1275.05 -994.39) scale(1.88 2.31)" xlink:href="#radial-gradient-14"/><radialGradient id="radial-gradient-28" cx="1013.85" cy="718.32" fx="1013.85" fy="718.32" gradientTransform="translate(-1275.05 -994.39) scale(1.88 2.31)" xlink:href="#radial-gradient-14"/><radialGradient id="radial-gradient-29" cx="968.95" cy="716.13" fx="968.95" fy="716.13" gradientTransform="translate(-1634.62 -1335.04) scale(2.27 2.76)" xlink:href="#radial-gradient-14"/><radialGradient id="radial-gradient-30" cx="1366.62" cy="729.17" fx="1366.62" fy="729.17" r="23.43" gradientTransform="translate(-1275.05 -994.39) scale(1.88 2.31)" xlink:href="#radial-gradient-14"/><radialGradient id="radial-gradient-31" cx="1323.8" cy="729.17" fx="1323.8" fy="729.17" r="23.43" gradientTransform="translate(-1275.05 -994.39) scale(1.88 2.31)" xlink:href="#radial-gradient-14"/><radialGradient id="radial-gradient-32" cx="1383.25" cy="724.16" fx="1383.25" fy="724.16" r="23.43" gradientTransform="translate(-1275.05 -994.39) scale(1.88 2.31)" xlink:href="#radial-gradient-14"/><radialGradient id="radial-gradient-33" cx="1291.76" cy="729.17" fx="1291.76" fy="729.17" r="23.43" gradientTransform="translate(-1275.05 -994.39) scale(1.88 2.31)" xlink:href="#radial-gradient-14"/><radialGradient id="radial-gradient-34" cx="1255.09" cy="726.16" fx="1255.09" fy="726.16" r="23.43" xlink:href="#radial-gradient-24"/><radialGradient id="radial-gradient-35" cx="1228.02" cy="726.16" fx="1228.02" fy="726.16" r="23.43" xlink:href="#radial-gradient-24"/><radialGradient id="radial-gradient-36" cx="872.81" cy="738.6" fx="872.81" fy="738.6" r="24.84" gradientTransform="translate(-1275.05 -994.39) scale(1.88 2.31)" xlink:href="#radial-gradient-14"/><radialGradient id="radial-gradient-37" cx="822.66" cy="738.6" fx="822.66" fy="738.6" r="24.84" xlink:href="#radial-gradient-18"/><radialGradient id="radial-gradient-38" cx="756.13" cy="726.48" fx="756.13" fy="726.48" r="24.84" gradientTransform="translate(-1275.05 -994.39) scale(1.88 2.31)" xlink:href="#radial-gradient-14"/><radialGradient id="radial-gradient-39" cx="716.2" cy="733.53" fx="716.2" fy="733.53" r="24.84" gradientTransform="translate(-1275.05 -994.39) scale(1.88 2.31)" xlink:href="#radial-gradient-14"/><radialGradient id="radial-gradient-40" cx="1530.42" cy="734.07" fx="1530.42" fy="734.07" r="29.34" gradientTransform="translate(-1341.09 -994.39) scale(1.95 2.31)" xlink:href="#radial-gradient-14"/><radialGradient id="radial-gradient-41" cx="1084.22" cy="725.81" fx="1084.22" fy="725.81" r="29.34" gradientTransform="translate(-1341.09 -994.39) scale(1.95 2.31)" xlink:href="#radial-gradient-14"/><radialGradient id="radial-gradient-42" cx="275.25" cy="130.9" fx="275.25" fy="130.9" r="72.01" gradientUnits="userSpaceOnUse"><stop offset="0" stop-color="#fff"/><stop offset=".09" stop-color="#fff6d8"/><stop offset=".21" stop-color="#ffeba7"/><stop offset=".33" stop-color="#ffe17d"/><stop offset=".46" stop-color="#ffd95a"/><stop offset=".59" stop-color="#ffd340"/><stop offset=".72" stop-color="#ffcf2d"/><stop offset=".86" stop-color="#ffcc21"/><stop offset="1" stop-color="#ffcc1e"/></radialGradient></defs><g id="Layer_1"><rect class="cls-13" x="5" y="5" width="1918.43" height="1080"/></g><g id="sky"><path d="M1924,6v1078H6V6h1918M1925,5H5v1080h1920V5h0Z"/><path class="cls-14" d="M5,712.22l161.55-420.32c10.2-19.41,37.95-19.54,48.34-.22l156.9,291.93c9.66,17.98,34.55,20.25,47.31,4.31l200.68-250.75c10.96-13.7,32.3-11.94,40.88,3.36l180.64,322.1,153.03-157.11c14.61-15,38.59-15.37,53.66-.83l176.13,169.91,185.85-317.85c9.35-16,31.62-18.16,43.88-4.26l78.68,89.25c11.58,13.14,32.04,13.21,43.71.14l206.21-230.81c10.67-11.94,29.74-10.56,38.59,2.79l102.4,346.02v214.99L4.23,791.18l.77-78.96Z"/></g><g id="mountainshade"><path class="cls-10" d="M188.11,277.38l16.75,150.76,62.21,116.85v53.02l59.18,189.41,92.85-199.52s-33.91,24.45-47.31-4.31c-30.29-65-159.82-294.88-159.82-294.88,0,0-13.05-14.7-23.86-11.34Z"/><path class="cls-9" d="M641.09,327.97l15.78,120.58,62.86,83.61,33.4,191.41,33.42,59.33,41.27-.41,70.7-.7-57.21-119.17-180.64-322.1s3.93-7.4-19.58-12.55Z"/><path class="cls-8" d="M1022.26,497.05l70.72,132.23,45.19,150.16,47.16-.46,38.78-104.38-176.13-169.91s-19.84-16.1-25.73-7.63Z"/><path class="cls-5" d="M1432.78,343.28l25.6,212.15,78.58,81.57,64.85,137.86,204.31-2.01-186.67-247.69-86.91-83.43-78.68-89.25s-8.41-12.66-21.07-9.2Z"/><polygon class="cls-12" points="1809.64 202.96 1826.33 396.76 1909.81 774.79 1923.43 774.87 1923.43 559.88 1821.03 213.85 1809.64 202.96"/><polygon class="cls-7" points="1764.83 283.53 1764.83 342.68 1729.47 403.36 1696.08 456.4 1764.83 283.53"/><polygon class="cls-6" points="1579.69 487 1619.44 525.16 1648.93 415.15 1614.31 470.16 1579.69 487"/><path class="cls-11" d="M1391.58,436.76l25.54-56.97s-7.86,64.83-25.54,90.37-41.25,55.01-41.25,55.01c0,0,53.04-59.98,41.25-88.4Z"/><path class="cls-1" d="M1014.4,532.16l-94.3,104.85s27.2-37.91,47.15-71.49c19.95-33.58,47.15-33.36,47.15-33.36Z"/><path class="cls-3" d="M597.93,415.15v55.01s43.22,43.61,33.4,74.84-45.18,92.01-45.18,92.01c0,0,25.54-84.47,13.75-110.93-11.79-26.46-29.47-55.92-29.47-55.92,0,0,7.86-35.36,27.5-55.01Z"/><path class="cls-2" d="M368.09,755.01s111.98-76.61,115.9-153.23,7.86,64.83,7.86,64.83l-123.76,88.4Z"/><path class="cls-4" d="M176.84,378.49s-25.98,135.66-64.33,225.15c-6.39,14.92-13.13,28.55-20.15,40.06-49.11,80.54-58.93,60.9-58.93,60.9,0,0,55.01-67.78,53.04-121.31s90.37-204.79,90.37-204.79Z"/></g><g id="water"><rect class="cls-23" x="5" y="774.87" width="1918.43" height="310.13"/></g><g id="reflection"><path class="cls-22" d="M231.44,843.02s-82.09-2.01-86.23-18.07,343.44-14.06,343.44-14.06c0,0-257.22,18.07-257.22,32.13Z"/><path class="cls-21" d="M1583.79,773.35s-179.08,9.04-179.08,16.06c0,0-57.16-1-60.03-9.04"/><path class="cls-18" d="M488.66,854.06s185.61-12.42,185.61-22.09c0,0,59.24,1.38,62.22,12.42"/><path class="cls-17" d="M1850.19,864.17s-257.22,18.07-257.22,32.13c0,0-82.09-2.01-86.23-18.07"/><path class="cls-16" d="M1182.93,880.24s-257.22,18.07-257.22,32.13c0,0-82.09-2.01-86.23-18.07"/><path class="cls-15" d="M1024.99,789.41s142.3,14.89,142.3,26.46c0,0,45.42-1.65,47.7-14.89"/><path class="cls-20" d="M302.85,1022.42s-108.58-2.85-114.04-25.64c-5.47-22.79,454.25-19.94,454.25-19.94,0,0-340.2,25.64-340.2,45.58Z"/><path class="cls-19" d="M1421.26,1043.43s-82.09-2.01-86.23-18.07,343.44-14.06,343.44-14.06c0,0-257.22,18.07-257.22,32.13Z"/><path class="cls-28" d="M800.31,756.2s97.28,7.44,97.28,13.23c0,0,31.05-.83,32.61-7.44"/><path class="cls-31" d="M990.11,742.64s137.1,6.1,137.1,10.85c0,0,43.76-.68,45.96-6.1"/><path class="cls-25" d="M713.16,767.9s-192.89-5.72-192.89-10.17c0,0-61.56.64-64.66,5.72"/></g><g id="land"><path class="cls-27" d="M4.23,791.18h1920.77v-31.53l-353.67-11.71c-104.38-5.08-121.02-6.06-137.69-6.28l-1188.58-7.35c-13.54-.16-126.65,8.56-139.92,11.25l-102.12,11.97,1.21,33.65Z"/></g><g id="trees"><path class="cls-26" d="M1434.6,676.37s-6.58,19.51-18.28,25.49c-4.27,2.18,10.18.77,10.18.77,0,0-.75,7.74-12.13,9.39-11.13,1.61,10.82-.03,10.82-.03,0,0-13.03,16.28-19.83,16.43-15.25.34,22.54,7.72,22.54,7.72l-.27,11.91h9.41l.08-11.91s38.38-4.58,23.09-7.72c-15.3-3.14-19.11-15.89-19.11-15.89,0,0,24.13.2,14.32-.98-9.81-1.18-15.48-8.13-15.48-8.13,0,0,16.18-.9,9-1.61s-14.35-25.45-14.35-25.45Z"/><path class="cls-33" d="M1849.73,542.34s-18.85,59.08-52.4,77.17c-12.24,6.6,29.19,2.34,29.19,2.34,0,0-2.14,23.45-34.78,28.44-31.91,4.88,31.03-.09,31.03-.09,0,0-37.36,49.29-56.85,49.75-43.73,1.03,64.63,23.37,64.63,23.37l-.76,36.06h26.99l.22-36.06s110.04-13.87,66.19-23.37c-43.85-9.5-54.78-48.1-54.78-48.1,0,0,69.17.61,41.06-2.95-28.11-3.56-44.38-24.63-44.38-24.63,0,0,46.38-2.71,25.8-4.89-20.59-2.18-41.14-77.04-41.14-77.04Z"/><path class="cls-24" d="M1721.06,593.55s-12.38,45.09-34.41,58.9c-8.04,5.04,19.17,1.78,19.17,1.78,0,0-1.41,17.9-22.84,21.71-20.95,3.73,20.37-.07,20.37-.07,0,0-24.53,37.62-37.33,37.97-28.72.78,42.44,17.83,42.44,17.83l-.5,27.52h17.72l.14-27.52s72.26-10.58,43.46-17.83c-28.8-7.25-35.97-36.71-35.97-36.71,0,0,45.42.46,26.96-2.25-18.46-2.72-29.14-18.8-29.14-18.8,0,0,30.46-2.07,16.94-3.73-13.52-1.66-27.02-58.8-27.02-58.8Z"/><path class="cls-29" d="M1583.11,583.61s-12.38,45.09-34.41,58.9c-8.04,5.04,19.17,1.78,19.17,1.78,0,0-1.41,17.9-22.84,21.71-20.95,3.73,20.37-.07,20.37-.07,0,0-24.53,37.62-37.33,37.97-28.72.78,42.44,17.83,42.44,17.83l-.5,27.52h17.72l.14-27.52s72.26-10.58,43.46-17.83c-28.8-7.25-35.97-36.71-35.97-36.71,0,0,45.42.46,26.96-2.25-18.46-2.72-29.14-18.8-29.14-18.8,0,0,30.46-2.07,16.94-3.73-13.52-1.66-27.02-58.8-27.02-58.8Z"/><path class="cls-32" d="M1510.17,583.61s-12.38,45.09-34.41,58.9c-8.04,5.04,19.17,1.78,19.17,1.78,0,0-1.41,17.9-22.84,21.71-20.95,3.73,20.37-.07,20.37-.07,0,0-24.53,37.62-37.33,37.97-28.72.78,42.44,17.83,42.44,17.83l-.5,27.52h17.72l.14-27.52s72.26-10.58,43.46-17.83c-28.8-7.25-35.97-36.71-35.97-36.71,0,0,45.42.46,26.96-2.25s-29.14-18.8-29.14-18.8c0,0,30.46-2.07,16.94-3.73s-27.02-58.8-27.02-58.8Z"/><path class="cls-30" d="M417.53,601.83s-12.38,45.09-34.41,58.9c-8.04,5.04,19.17,1.78,19.17,1.78,0,0-1.41,17.9-22.84,21.71-20.95,3.73,20.37-.07,20.37-.07,0,0-24.53,37.62-37.33,37.97-28.72.78,42.44,17.83,42.44,17.83l-.5,27.52h17.72l.14-27.52s72.26-10.58,43.46-17.83c-28.8-7.25-35.97-36.71-35.97-36.71,0,0,45.42.46,26.96-2.25-18.46-2.72-29.14-18.8-29.14-18.8,0,0,30.46-2.07,16.94-3.73-13.52-1.66-27.02-58.8-27.02-58.8Z"/><path class="cls-43" d="M302.16,601.83s-12.38,45.09-34.41,58.9c-8.04,5.04,19.17,1.78,19.17,1.78,0,0-1.41,17.9-22.84,21.71-20.95,3.73,20.37-.07,20.37-.07,0,0-24.53,37.62-37.33,37.97-28.72.78,42.44,17.83,42.44,17.83l-.5,27.52h17.72l.14-27.52s72.26-10.58,43.46-17.83c-28.8-7.25-35.97-36.71-35.97-36.71,0,0,45.42.46,26.96-2.25-18.46-2.72-29.14-18.8-29.14-18.8,0,0,30.46-2.07,16.94-3.73-13.52-1.66-27.02-58.8-27.02-58.8Z"/><path class="cls-48" d="M462.33,585.27s-12.38,45.09-34.41,58.9c-8.04,5.04,19.17,1.78,19.17,1.78,0,0-1.41,17.9-22.84,21.71-20.95,3.73,20.37-.07,20.37-.07,0,0-24.53,37.62-37.33,37.97-28.72.78,42.44,17.83,42.44,17.83l-.5,27.52h17.72l.14-27.52s72.26-10.58,43.46-17.83c-28.8-7.25-35.97-36.71-35.97-36.71,0,0,45.42.46,26.96-2.25-18.46-2.72-29.14-18.8-29.14-18.8,0,0,30.46-2.07,16.94-3.73-13.52-1.66-27.02-58.8-27.02-58.8Z"/><path class="cls-40" d="M215.81,601.83s-12.38,45.09-34.41,58.9c-8.04,5.04,19.17,1.78,19.17,1.78,0,0-1.41,17.9-22.84,21.71-20.95,3.73,20.37-.07,20.37-.07,0,0-24.53,37.62-37.33,37.97-28.72.78,42.44,17.83,42.44,17.83l-.5,27.52h17.72l.14-27.52s72.26-10.58,43.46-17.83c-28.8-7.25-35.97-36.71-35.97-36.71,0,0,45.42.46,26.96-2.25-18.46-2.72-29.14-18.8-29.14-18.8,0,0,30.46-2.07,16.94-3.73-13.52-1.66-27.02-58.8-27.02-58.8Z"/><path class="cls-42" d="M138.38,532.16s-16.66,61.35-46.29,80.13c-10.82,6.86,25.79,2.43,25.79,2.43,0,0-1.89,24.35-30.73,29.53-28.19,5.07,27.41-.09,27.41-.09,0,0-33.01,51.18-50.22,51.65-38.63,1.07,57.09,24.26,57.09,24.26l-.67,37.44h23.84l.19-37.44s97.21-14.4,58.47-24.26c-38.74-9.86-48.4-49.95-48.4-49.95,0,0,61.11.63,36.27-3.07-24.83-3.7-39.21-25.57-39.21-25.57,0,0,40.97-2.82,22.79-5.07s-36.35-80-36.35-80Z"/><path class="cls-44" d="M937.56,592.47s-12.38,45.09-34.41,58.9c-8.04,5.04,19.17,1.78,19.17,1.78,0,0-1.41,17.9-22.84,21.71-20.95,3.73,20.37-.07,20.37-.07,0,0-24.53,37.62-37.33,37.97-28.72.78,42.44,17.83,42.44,17.83l-.5,27.52h17.72l.14-27.52s72.26-10.58,43.46-17.83c-28.8-7.25-35.97-36.71-35.97-36.71,0,0,45.42.46,26.96-2.25-18.46-2.72-29.14-18.8-29.14-18.8,0,0,30.46-2.07,16.94-3.73-13.52-1.66-27.02-58.8-27.02-58.8Z"/><path class="cls-37" d="M822.19,592.47s-12.38,45.09-34.41,58.9c-8.04,5.04,19.17,1.78,19.17,1.78,0,0-1.41,17.9-22.84,21.71-20.95,3.73,20.37-.07,20.37-.07,0,0-24.53,37.62-37.33,37.97-28.72.78,42.44,17.83,42.44,17.83l-.5,27.52h17.72l.14-27.52s72.26-10.58,43.46-17.83c-28.8-7.25-35.97-36.71-35.97-36.71,0,0,45.42.46,26.96-2.25-18.46-2.72-29.14-18.8-29.14-18.8,0,0,30.46-2.07,16.94-3.73-13.52-1.66-27.02-58.8-27.02-58.8Z"/><path class="cls-45" d="M982.35,575.91s-12.38,45.09-34.41,58.9c-8.04,5.04,19.17,1.78,19.17,1.78,0,0-1.41,17.9-22.84,21.71-20.95,3.73,20.37-.07,20.37-.07,0,0-24.53,37.62-37.33,37.97-28.72.78,42.44,17.83,42.44,17.83l-.5,27.52h17.72l.14-27.52s72.26-10.58,43.46-17.83c-28.8-7.25-35.97-36.71-35.97-36.71,0,0,45.42.46,26.96-2.25-18.46-2.72-29.14-18.8-29.14-18.8,0,0,30.46-2.07,16.94-3.73-13.52-1.66-27.02-58.8-27.02-58.8Z"/><path class="cls-47" d="M735.84,592.47s-12.38,45.09-34.41,58.9c-8.04,5.04,19.17,1.78,19.17,1.78,0,0-1.41,17.9-22.84,21.71-20.95,3.73,20.37-.07,20.37-.07,0,0-24.53,37.62-37.33,37.97-28.72.78,42.44,17.83,42.44,17.83l-.5,27.52h17.72l.14-27.52s72.26-10.58,43.46-17.83c-28.8-7.25-35.97-36.71-35.97-36.71,0,0,45.42.46,26.96-2.25-18.46-2.72-29.14-18.8-29.14-18.8,0,0,30.46-2.07,16.94-3.73-13.52-1.66-27.02-58.8-27.02-58.8Z"/><path class="cls-41" d="M637.04,582.53s-12.38,45.09-34.41,58.9c-8.04,5.04,19.17,1.78,19.17,1.78,0,0-1.41,17.9-22.84,21.71-20.95,3.73,20.37-.07,20.37-.07,0,0-24.53,37.62-37.33,37.97-28.72.78,42.44,17.83,42.44,17.83l-.5,27.52h17.72l.14-27.52s72.26-10.58,43.46-17.83c-28.8-7.25-35.97-36.71-35.97-36.71,0,0,45.42.46,26.96-2.25-18.46-2.72-29.14-18.8-29.14-18.8,0,0,30.46-2.07,16.94-3.73-13.52-1.66-27.02-58.8-27.02-58.8Z"/><path class="cls-46" d="M565.12,545s-14.9,53.93-41.41,70.44c-9.68,6.03,23.07,2.13,23.07,2.13,0,0-1.69,21.4-27.49,25.96-25.22,4.46,24.52-.08,24.52-.08,0,0-29.53,44.99-44.93,45.41-34.57.94,51.08,21.33,51.08,21.33l-.6,32.92h21.33l.17-32.92s86.98-12.66,52.31-21.33c-34.66-8.67-43.3-43.91-43.3-43.91,0,0,54.67.55,32.45-2.7-22.22-3.25-35.08-22.48-35.08-22.48,0,0,36.66-2.48,20.39-4.46s-32.52-70.32-32.52-70.32Z"/><path class="cls-54" d="M1300.14,632.57s-8.65,31.5-24.04,41.15c-5.62,3.52,13.39,1.25,13.39,1.25,0,0-.98,12.5-15.96,15.17-14.64,2.6,14.24-.05,14.24-.05,0,0-17.14,26.28-26.08,26.53-20.06.55,29.65,12.46,29.65,12.46l-.35,19.23h12.38l.1-19.23s50.49-7.39,30.37-12.46c-20.12-5.07-25.13-25.65-25.13-25.65,0,0,31.74.32,18.84-1.58-12.9-1.9-20.36-13.13-20.36-13.13,0,0,21.28-1.45,11.83-2.61s-18.88-41.08-18.88-41.08Z"/><path class="cls-53" d="M1219.53,632.57s-8.65,31.5-24.04,41.15c-5.62,3.52,13.39,1.25,13.39,1.25,0,0-.98,12.5-15.96,15.17-14.64,2.6,14.24-.05,14.24-.05,0,0-17.14,26.28-26.08,26.53-20.06.55,29.65,12.46,29.65,12.46l-.35,19.23h12.38l.1-19.23s50.49-7.39,30.37-12.46c-20.12-5.07-25.13-25.65-25.13-25.65,0,0,31.74.32,18.84-1.58-12.9-1.9-20.36-13.13-20.36-13.13,0,0,21.28-1.45,11.83-2.61s-18.88-41.08-18.88-41.08Z"/><path class="cls-52" d="M1331.44,621s-8.65,31.5-24.04,41.15c-5.62,3.52,13.39,1.25,13.39,1.25,0,0-.98,12.5-15.96,15.17-14.64,2.6,14.24-.05,14.24-.05,0,0-17.14,26.28-26.08,26.53-20.06.55,29.65,12.46,29.65,12.46l-.35,19.23h12.38l.1-19.23s50.49-7.39,30.37-12.46c-20.12-5.07-25.13-25.65-25.13-25.65,0,0,31.74.32,18.84-1.58-12.9-1.9-20.36-13.13-20.36-13.13,0,0,21.28-1.45,11.83-2.61-9.44-1.16-18.88-41.08-18.88-41.08Z"/><path class="cls-51" d="M1159.2,632.57s-8.65,31.5-24.04,41.15c-5.62,3.52,13.39,1.25,13.39,1.25,0,0-.98,12.5-15.96,15.17-14.64,2.6,14.24-.05,14.24-.05,0,0-17.14,26.28-26.08,26.53-20.06.55,29.65,12.46,29.65,12.46l-.35,19.23h12.38l.1-19.23s50.49-7.39,30.37-12.46c-20.12-5.07-25.13-25.65-25.13-25.65,0,0,31.74.32,18.84-1.58-12.9-1.9-20.36-13.13-20.36-13.13,0,0,21.28-1.45,11.83-2.61s-18.88-41.08-18.88-41.08Z"/><path class="cls-39" d="M1090.17,625.62s-8.65,31.5-24.04,41.15c-5.62,3.52,13.39,1.25,13.39,1.25,0,0-.98,12.5-15.96,15.17-14.64,2.6,14.24-.05,14.24-.05,0,0-17.14,26.28-26.08,26.53-20.06.55,29.65,12.46,29.65,12.46l-.35,19.23h12.38l.1-19.23s50.49-7.39,30.37-12.46c-20.12-5.07-25.13-25.65-25.13-25.65,0,0,31.74.32,18.84-1.58-12.9-1.9-20.36-13.13-20.36-13.13,0,0,21.28-1.45,11.83-2.61-9.44-1.16-18.88-41.08-18.88-41.08Z"/><path class="cls-38" d="M1039.21,625.62s-8.65,31.5-24.04,41.15c-5.62,3.52,13.39,1.25,13.39,1.25,0,0-.98,12.5-15.96,15.17-14.64,2.6,14.24-.05,14.24-.05,0,0-17.14,26.28-26.08,26.53-20.06.55,29.65,12.46,29.65,12.46l-.35,19.23h12.38l.1-19.23s50.49-7.39,30.37-12.46c-20.12-5.07-25.13-25.65-25.13-25.65,0,0,31.74.32,18.84-1.58-12.9-1.9-20.36-13.13-20.36-13.13,0,0,21.28-1.45,11.83-2.61-9.44-1.16-18.88-41.08-18.88-41.08Z"/><path class="cls-56" d="M370.63,650.86s-9.17,33.4-25.49,43.63c-5.96,3.73,14.2,1.32,14.2,1.32,0,0-1.04,13.26-16.92,16.08-15.52,2.76,15.09-.05,15.09-.05,0,0-18.17,27.86-27.65,28.12-21.27.58,31.44,13.21,31.44,13.21l-.37,20.39h13.13l.11-20.39s53.53-7.84,32.2-13.21c-21.33-5.37-26.65-27.2-26.65-27.2,0,0,33.65.34,19.97-1.67-13.67-2.01-21.59-13.92-21.59-13.92,0,0,22.56-1.53,12.55-2.76-10.01-1.23-20.01-43.55-20.01-43.55Z"/><path class="cls-55" d="M276.23,650.86s-9.17,33.4-25.49,43.63c-5.96,3.73,14.2,1.32,14.2,1.32,0,0-1.04,13.26-16.92,16.08-15.52,2.76,15.09-.05,15.09-.05,0,0-18.17,27.86-27.65,28.12-21.27.58,31.44,13.21,31.44,13.21l-.37,20.39h13.13l.11-20.39s53.53-7.84,32.2-13.21c-21.33-5.37-26.65-27.2-26.65-27.2,0,0,33.65.34,19.97-1.67-13.67-2.01-21.59-13.92-21.59-13.92,0,0,22.56-1.53,12.55-2.76-10.01-1.23-20.01-43.55-20.01-43.55Z"/><path class="cls-50" d="M150.97,622.86s-9.17,33.4-25.49,43.63c-5.96,3.73,14.2,1.32,14.2,1.32,0,0-1.04,13.26-16.92,16.08-15.52,2.76,15.09-.05,15.09-.05,0,0-18.17,27.86-27.65,28.12-21.27.58,31.44,13.21,31.44,13.21l-.37,20.39h13.13l.11-20.39s53.53-7.84,32.2-13.21c-21.33-5.37-26.65-27.2-26.65-27.2,0,0,33.65.34,19.97-1.67-13.67-2.01-21.59-13.92-21.59-13.92,0,0,22.56-1.53,12.55-2.76-10.01-1.23-20.01-43.55-20.01-43.55Z"/><path class="cls-49" d="M75.81,639.16s-9.17,33.4-25.49,43.63c-5.96,3.73,14.2,1.32,14.2,1.32,0,0-1.04,13.26-16.92,16.08-15.52,2.76,15.09-.05,15.09-.05,0,0-18.17,27.86-27.65,28.12-21.27.58,31.44,13.21,31.44,13.21l-.37,20.39h13.13l.11-20.39s53.53-7.84,32.2-13.21c-21.33-5.37-26.65-27.2-26.65-27.2,0,0,33.65.34,19.97-1.67s-21.59-13.92-21.59-13.92c0,0,22.56-1.53,12.55-2.76-10.01-1.23-20.01-43.55-20.01-43.55Z"/><path class="cls-35" d="M1644.84,629.28s-11.21,39.45-31.17,51.53c-7.28,4.41,17.36,1.56,17.36,1.56,0,0-1.27,15.66-20.69,18.99-18.98,3.26,18.46-.06,18.46-.06,0,0-22.22,32.91-33.82,33.22-26.01.69,38.44,15.6,38.44,15.6l-.45,24.08h16.05l.13-24.08s65.46-9.26,39.37-15.6c-26.09-6.34-32.59-32.12-32.59-32.12,0,0,41.15.41,24.42-1.97-16.72-2.38-26.4-16.45-26.4-16.45,0,0,27.59-1.81,15.34-3.26-12.24-1.45-24.47-51.45-24.47-51.45Z"/><path class="cls-36" d="M775.18,610.21s-11.21,39.45-31.17,51.53c-7.28,4.41,17.36,1.56,17.36,1.56,0,0-1.27,15.66-20.69,18.99-18.98,3.26,18.46-.06,18.46-.06,0,0-22.22,32.91-33.82,33.22-26.01.69,38.44,15.6,38.44,15.6l-.45,24.08h16.05l.13-24.08s65.46-9.26,39.37-15.6c-26.09-6.34-32.59-32.12-32.59-32.12,0,0,41.15.41,24.42-1.97s-26.4-16.45-26.4-16.45c0,0,27.59-1.81,15.34-3.26s-24.47-51.45-24.47-51.45Z"/></g><g id="sun"><circle class="cls-34" cx="275.25" cy="130.9" r="72.01"/></g></svg>